name Walk5.mot
datacolumns 19
datarows 17
range 1.83800000 1.85400000
endheader

                time	   L_ground_force_vx	   L_ground_force_vy	   L_ground_force_vz	   L_ground_force_px	   L_ground_force_py	   L_ground_force_pz	   R_ground_force_vx	   R_ground_force_vy	   R_ground_force_vz	   R_ground_force_px	   R_ground_force_py	   R_ground_force_pz	   L_ground_torque_x	   L_ground_torque_y	   L_ground_torque_z	   R_ground_torque_x	   R_ground_torque_y	   R_ground_torque_z	
          1.83800000	          0.00953752	          0.04806230	         -0.00553561	         -0.00009961	          0.00000000	         -0.00006300	        -22.69476397	        830.96531126	        -46.33945681	          0.49147077	          0.00000000	          0.12192884	          0.00000000	          0.00006751	          0.00000000	          0.00000000	          1.63574488	          0.00000000	
          1.83900000	          0.00781505	          0.04332188	         -0.00512923	         -0.00009517	          0.00000000	         -0.00006070	        -22.39835082	        829.32518865	        -46.13602829	          0.49177924	          0.00000000	          0.12199079	          0.00000000	          0.00005897	          0.00000000	          0.00000000	          1.57461630	          0.00000000	
          1.84000000	          0.00620950	          0.03882080	         -0.00473802	         -0.00009075	          0.00000000	         -0.00005837	        -22.10499300	        827.72466418	        -45.93473925	          0.49208692	          0.00000000	          0.12205200	          0.00000000	          0.00005094	          0.00000000	          0.00000000	          1.51394020	          0.00000000	
          1.84100000	          0.00471700	          0.03455573	         -0.00436217	         -0.00008636	          0.00000000	         -0.00005601	        -21.81459164	        826.16397245	        -45.73588253	          0.49239385	          0.00000000	          0.12211252	          0.00000000	          0.00004339	          0.00000000	          0.00000000	          1.45371030	          0.00000000	
          1.84200000	          0.00333357	          0.03052272	         -0.00400180	         -0.00008201	          0.00000000	         -0.00005365	        -21.52705362	        824.64335871	        -45.53974502	          0.49270011	          0.00000000	          0.12217237	          0.00000000	          0.00003633	          0.00000000	          0.00000000	          1.39392138	          0.00000000	
          1.84300000	          0.00205517	          0.02671727	         -0.00365694	         -0.00007773	          0.00000000	         -0.00005128	        -21.24229154	        823.16307324	        -45.34660700	          0.49300574	          0.00000000	          0.12223162	          0.00000000	          0.00002972	          0.00000000	          0.00000000	          1.33456922	          0.00000000	
          1.84400000	          0.00087770	          0.02313442	         -0.00332758	         -0.00007352	          0.00000000	         -0.00004892	        -20.96022360	        821.72336601	        -45.15674145	          0.49331083	          0.00000000	          0.12229028	          0.00000000	          0.00002357	          0.00000000	          0.00000000	          1.27565061	          0.00000000	
          1.84500000	         -0.00020297	          0.01976878	         -0.00301366	         -0.00006938	          0.00000000	         -0.00004657	        -20.68077330	        820.32448259	        -44.97041350	          0.49361541	          0.00000000	          0.12234842	          0.00000000	          0.00001785	          0.00000000	          0.00000000	          1.21716340	          0.00000000	
          1.84600000	         -0.00119100	          0.01661459	         -0.00271503	         -0.00006534	          0.00000000	         -0.00004425	        -20.40386924	        818.96666192	        -44.78788002	          0.49391956	          0.00000000	          0.12240605	          0.00000000	          0.00001255	          0.00000000	          0.00000000	          1.15910636	          0.00000000	
          1.84700000	         -0.00209052	          0.01366581	         -0.00243154	         -0.00006139	          0.00000000	         -0.00004196	        -20.12944498	        817.65013518	        -44.60938948	          0.49422334	          0.00000000	          0.12246322	          0.00000000	          0.00000766	          0.00000000	          0.00000000	          1.10147913	          0.00000000	
          1.84800000	         -0.00290565	          0.01091610	         -0.00216296	         -0.00005755	          0.00000000	         -0.00003970	        -19.85743877	        816.37512529	        -44.43518169	          0.49452679	          0.00000000	          0.12251997	          0.00000000	          0.00000315	          0.00000000	          0.00000000	          1.04428195	          0.00000000	
          1.84900000	         -0.00364050	          0.00835894	         -0.00190905	         -0.00005382	          0.00000000	         -0.00003749	        -19.58779314	        815.14184653	        -44.26548755	          0.49482998	          0.00000000	          0.12257632	          0.00000000	         -0.00000099	          0.00000000	          0.00000000	          0.98751548	          0.00000000	
          1.85000000	         -0.00429912	          0.00598761	         -0.00166951	         -0.00005020	          0.00000000	         -0.00003532	        -19.32045423	        813.95050436	        -44.10052874	          0.49513297	          0.00000000	          0.12263232	          0.00000000	         -0.00000477	          0.00000000	          0.00000000	          0.93118054	          0.00000000	
          1.85100000	         -0.00488549	          0.00379527	         -0.00144403	         -0.00004670	          0.00000000	         -0.00003321	        -19.05537093	        812.80129549	        -43.94051732	          0.49543580	          0.00000000	          0.12268797	          0.00000000	         -0.00000822	          0.00000000	          0.00000000	          0.87527796	          0.00000000	
          1.85200000	         -0.00540354	          0.00177500	         -0.00123226	         -0.00004332	          0.00000000	         -0.00003115	        -18.79249390	        811.69440787	        -43.78565556	          0.49573855	          0.00000000	          0.12274333	          0.00000000	         -0.00001134	          0.00000000	          0.00000000	          0.81980837	          0.00000000	
          1.85300000	         -0.00585713	         -0.00008021	         -0.00103384	         -0.00004006	          0.00000000	         -0.00002914	        -18.53177436	        810.63002006	        -43.63613568	          0.49604128	          0.00000000	          0.12279841	          0.00000000	         -0.00001415	          0.00000000	          0.00000000	          0.76477205	          0.00000000	
          1.85400000	         -0.00625002	         -0.00177738	         -0.00084839	         -0.00003693	          0.00000000	         -0.00002720	        -18.27316299	        809.60830021	        -43.49213961	          0.49634406	          0.00000000	          0.12285323	          0.00000000	         -0.00001667	          0.00000000	          0.00000000	          0.71016880	          0.00000000	
